# xmcd
#
# Track frame offsets:
# 150
# 15308
# 27939
# 42102
# 55903
# 68621
# 81711
# 98035
# 113897
# 128423
# 144773
# 154553
# 168355
# 183694
# 200603
# 215170
# 234145
# 253499
# 270330
# 286562
#
# Disc length: 4102 seconds
#
#
# Revision: 0
# Processed by: cddbd v1.5.1PL2 Copyright (c) Steve Scherf et al.
# Submitted via: FreeRIP 2.945 
#
DISCID=0c100414
DTITLE=Rio Negro e Solimões - As 20 Mais de Rio Negro e Solimões
DYEAR=1900
DGENRE=Country
TTITLE0=01 - Só Alegria
TTITLE1=02 - Bate O Pé
TTITLE2=03 - De São Paulo a Bélem
TTITLE3=04 - Peão Apaixonado
TTITLE4=05 - Tô Doidão
TTITLE5=06 - Saudade Pulou no Peito
TTITLE6=07 - A gente se Entrega
TTITLE7=08 - Ô de Casa Ô de Fora
TTITLE8=09 - Trem Bão
TTITLE9=10 - Casa Cheia
TTITLE10=11 - Meu Amor
TTITLE11=12 - Deixa a Poeira Subir
TTITLE12=13 - De Cara Cheia
TTITLE13=14 - Depois de Você
TTITLE14=15 - Como Esquecer Um Amor
TTITLE15=16 - Laço da Paixão
TTITLE16=17 - Frio da Madrugada
TTITLE17=18 - Saudade Aperta
TTITLE18=19 - Como Te Esquecer
TTITLE19=20 - Só Lembranças
EXTD=20 maiores sucessos
EXTT0=
EXTT1=
EXTT2=
EXTT3=
EXTT4=
EXTT5=
EXTT6=
EXTT7=
EXTT8=
EXTT9=
EXTT10=
EXTT11=
EXTT12=
EXTT13=
EXTT14=
EXTT15=
EXTT16=
EXTT17=
EXTT18=
EXTT19=
PLAYORDER=
